REM DIRINDEX 1\2,1\3,1\4,1\5
REM DIRNAME cjc044,folder01,folder02,folder03,folder04
TITLE ""
FILE "1800_181.mp3" MP3
  TRACK 01 AUDIO
    TITLE "2:cjc044_6279"
    INDEX 01 00:00:00
  TRACK 02 AUDIO
    TITLE "0:"
    INDEX 01 00:01:05
  TRACK 03 AUDIO
    TITLE "3:cjc044_6280"
    INDEX 01 00:01:52
  TRACK 04 AUDIO
    TITLE "0:"
    INDEX 01 00:02:55
  TRACK 05 AUDIO
    TITLE "4:cjc044_6281"
    INDEX 01 00:03:25
  TRACK 06 AUDIO
    TITLE "0:"
    INDEX 01 00:04:44
  TRACK 07 AUDIO
    TITLE "2:cjc044_6282"
    INDEX 01 00:06:16
  TRACK 08 AUDIO
    TITLE "0:"
    INDEX 01 00:07:37
  TRACK 09 AUDIO
    TITLE "3:cjc044_6283"
    INDEX 01 00:08:07
  TRACK 10 AUDIO
    TITLE "0:"
    INDEX 01 00:09:02
  TRACK 11 AUDIO
    TITLE "4:cjc044_6284"
    INDEX 01 00:09:49
  TRACK 12 AUDIO
    TITLE "0:"
    INDEX 01 00:10:70
  TRACK 13 AUDIO
    TITLE "2:cjc044_6285"
    INDEX 01 00:12:44
  TRACK 14 AUDIO
    TITLE "0:"
    INDEX 01 00:14:00
  TRACK 15 AUDIO
    TITLE "3:cjc044_6286"
    INDEX 01 00:14:45
  TRACK 16 AUDIO
    TITLE "0:"
    INDEX 01 00:15:62
  TRACK 17 AUDIO
    TITLE "4:cjc044_6287"
    INDEX 01 00:16:34
  TRACK 18 AUDIO
    TITLE "0:"
    INDEX 01 00:17:63
  TRACK 19 AUDIO
    TITLE "2:cjc044_6288"
    INDEX 01 00:19:34
  TRACK 20 AUDIO
    TITLE "0:"
    INDEX 01 00:21:21
  TRACK 21 AUDIO
    TITLE "3:cjc044_6289"
    INDEX 01 00:21:70
  TRACK 22 AUDIO
    TITLE "0:"
    INDEX 01 00:23:18
  TRACK 23 AUDIO
    TITLE "4:cjc044_6290"
    INDEX 01 00:23:65
  TRACK 24 AUDIO
    TITLE "0:"
    INDEX 01 00:25:56
  TRACK 25 AUDIO
    TITLE "2:cjc044_6291"
    INDEX 01 00:27:30
  TRACK 26 AUDIO
    TITLE "0:"
    INDEX 01 00:28:53
  TRACK 27 AUDIO
    TITLE "3:cjc044_6292"
    INDEX 01 00:29:25
  TRACK 28 AUDIO
    TITLE "0:"
    INDEX 01 00:30:38
  TRACK 29 AUDIO
    TITLE "4:cjc044_6293"
    INDEX 01 00:31:10
  TRACK 30 AUDIO
    TITLE "0:"
    INDEX 01 00:32:35
  TRACK 31 AUDIO
    TITLE "2:cjc044_6294"
    INDEX 01 00:34:08
  TRACK 32 AUDIO
    TITLE "0:"
    INDEX 01 00:35:31
  TRACK 33 AUDIO
    TITLE "3:cjc044_6295"
    INDEX 01 00:36:03
  TRACK 34 AUDIO
    TITLE "0:"
    INDEX 01 00:37:12
  TRACK 35 AUDIO
    TITLE "4:cjc044_6296"
    INDEX 01 00:37:61
  TRACK 36 AUDIO
    TITLE "0:"
    INDEX 01 00:39:09
  TRACK 37 AUDIO
    TITLE "2:cjc044_6297"
    INDEX 01 00:40:60
  TRACK 38 AUDIO
    TITLE "0:"
    INDEX 01 00:42:06
  TRACK 39 AUDIO
    TITLE "3:cjc044_6298"
    INDEX 01 00:42:53
  TRACK 40 AUDIO
    TITLE "0:"
    INDEX 01 00:43:48
  TRACK 41 AUDIO
    TITLE "4:cjc044_6299"
    INDEX 01 00:44:22
  TRACK 42 AUDIO
    TITLE "0:"
    INDEX 01 00:45:45
  TRACK 43 AUDIO
    TITLE "2:cjc044_6300"
    INDEX 01 00:47:19
  TRACK 44 AUDIO
    TITLE "0:"
    INDEX 01 00:48:42
  TRACK 45 AUDIO
    TITLE "3:cjc044_6301"
    INDEX 01 00:49:20
  TRACK 46 AUDIO
    TITLE "0:"
    INDEX 01 00:50:23
  TRACK 47 AUDIO
    TITLE "4:cjc044_6302"
    INDEX 01 00:50:68
  TRACK 48 AUDIO
    TITLE "0:"
    INDEX 01 00:52:20
  TRACK 49 AUDIO
    TITLE "2:cjc044_6303"
    INDEX 01 00:53:68
  TRACK 50 AUDIO
    TITLE "0:"
    INDEX 01 00:55:40
  TRACK 51 AUDIO
    TITLE "3:cjc044_6304"
    INDEX 01 00:56:10
  TRACK 52 AUDIO
    TITLE "0:"
    INDEX 01 00:57:33
  TRACK 53 AUDIO
    TITLE "4:cjc044_6305"
    INDEX 01 00:58:03
  TRACK 54 AUDIO
    TITLE "0:"
    INDEX 01 00:59:49
  TRACK 55 AUDIO
    TITLE "2:cjc044_6306"
    INDEX 01 01:01:23
  TRACK 56 AUDIO
    TITLE "0:"
    INDEX 01 01:02:26
  TRACK 57 AUDIO
    TITLE "3:cjc044_6307"
    INDEX 01 01:03:02
  TRACK 58 AUDIO
    TITLE "0:"
    INDEX 01 01:04:03
  TRACK 59 AUDIO
    TITLE "4:cjc044_6308"
    INDEX 01 01:04:50
  TRACK 60 AUDIO
    TITLE "0:"
    INDEX 01 01:05:54
  TRACK 61 AUDIO
    TITLE "2:cjc044_6309"
    INDEX 01 01:07:27
  TRACK 62 AUDIO
    TITLE "0:"
    INDEX 01 01:08:64
  TRACK 63 AUDIO
    TITLE "3:cjc044_6310"
    INDEX 01 01:09:36
  TRACK 64 AUDIO
    TITLE "0:"
    INDEX 01 01:11:29
  TRACK 65 AUDIO
    TITLE "4:cjc044_6311"
    INDEX 01 01:12:01
  TRACK 66 AUDIO
    TITLE "0:"
    INDEX 01 01:13:40
  TRACK 67 AUDIO
    TITLE "2:cjc044_6312"
    INDEX 01 01:15:19
  TRACK 68 AUDIO
    TITLE "0:"
    INDEX 01 01:16:40
  TRACK 69 AUDIO
    TITLE "3:cjc044_6313"
    INDEX 01 01:17:12
  TRACK 70 AUDIO
    TITLE "0:"
    INDEX 01 01:18:23
  TRACK 71 AUDIO
    TITLE "4:cjc044_6314"
    INDEX 01 01:18:70
  TRACK 72 AUDIO
    TITLE "0:"
    INDEX 01 01:20:18
  TRACK 73 AUDIO
    TITLE "2:cjc044_6315"
    INDEX 01 01:21:67
  TRACK 74 AUDIO
    TITLE "0:"
    INDEX 01 01:23:22
  TRACK 75 AUDIO
    TITLE "3:cjc044_6316"
    INDEX 01 01:23:73
  TRACK 76 AUDIO
    TITLE "0:"
    INDEX 01 01:25:51
  TRACK 77 AUDIO
    TITLE "4:cjc044_6317"
    INDEX 01 01:26:21
  TRACK 78 AUDIO
    TITLE "0:"
    INDEX 01 01:27:46
  TRACK 79 AUDIO
    TITLE "2:cjc044_6318"
    INDEX 01 01:29:21
  TRACK 80 AUDIO
    TITLE "0:"
    INDEX 01 01:30:40
  TRACK 81 AUDIO
    TITLE "3:cjc044_6319"
    INDEX 01 01:31:12
  TRACK 82 AUDIO
    TITLE "0:"
    INDEX 01 01:32:06
  TRACK 83 AUDIO
    TITLE "4:cjc044_6320"
    INDEX 01 01:32:51
  TRACK 84 AUDIO
    TITLE "0:"
    INDEX 01 01:33:68
  TRACK 85 AUDIO
    TITLE "2:cjc044_6321"
    INDEX 01 01:35:43
  TRACK 86 AUDIO
    TITLE "0:"
    INDEX 01 01:37:01
  TRACK 87 AUDIO
    TITLE "3:cjc044_6322"
    INDEX 01 01:37:50
  TRACK 88 AUDIO
    TITLE "0:"
    INDEX 01 01:38:67
  TRACK 89 AUDIO
    TITLE "4:cjc044_6323"
    INDEX 01 01:39:41
  TRACK 90 AUDIO
    TITLE "0:"
    INDEX 01 01:40:74
  TRACK 91 AUDIO
    TITLE "2:cjc044_6324"
    INDEX 01 01:42:45
  TRACK 92 AUDIO
    TITLE "0:"
    INDEX 01 01:44:01
  TRACK 93 AUDIO
    TITLE "3:cjc044_6325"
    INDEX 01 01:44:46
  TRACK 94 AUDIO
    TITLE "0:"
    INDEX 01 01:45:57
  TRACK 95 AUDIO
    TITLE "4:cjc044_6326"
    INDEX 01 01:46:27
  TRACK 96 AUDIO
    TITLE "0:"
    INDEX 01 01:47:58
  TRACK 97 AUDIO
    TITLE "2:cjc044_6327"
    INDEX 01 01:49:32
  TRACK 98 AUDIO
    TITLE "0:"
    INDEX 01 01:50:49
  TRACK 99 AUDIO
    TITLE "3:cjc044_6328"
    INDEX 01 01:51:21
  TRACK 100 AUDIO
    TITLE "0:"
    INDEX 01 01:52:12
  TRACK 101 AUDIO
    TITLE "4:cjc044_6329"
    INDEX 01 01:52:57
  TRACK 102 AUDIO
    TITLE "0:"
    INDEX 01 01:54:01
  TRACK 103 AUDIO
    TITLE "2:cjc044_6330"
    INDEX 01 01:55:50
  TRACK 104 AUDIO
    TITLE "0:"
    INDEX 01 01:56:61
  TRACK 105 AUDIO
    TITLE "3:cjc044_6331"
    INDEX 01 01:57:31
  TRACK 106 AUDIO
    TITLE "0:"
    INDEX 01 01:58:42
  TRACK 107 AUDIO
    TITLE "4:cjc044_6332"
    INDEX 01 01:59:10
  TRACK 108 AUDIO
    TITLE "0:"
    INDEX 01 02:00:22
